<mxfile host="Electron" modified="2023-11-05T16:04:14.362Z" agent="Mozilla/5.0 (Windows NT 10.0; Win64; x64) AppleWebKit/537.36 (KHTML, like Gecko) draw.io/22.0.3 Chrome/114.0.5735.289 Electron/25.8.4 Safari/537.36" etag="H9MR_ZJn2r2LEQ2k7LBT" version="22.0.3" type="device">
  <diagram name="Page-1" id="5f0bae14-7c28-e335-631c-24af17079c00">
    <mxGraphModel dx="3160" dy="4063" grid="1" gridSize="10" guides="1" tooltips="1" connect="1" arrows="1" fold="1" page="0" pageScale="1" pageWidth="1100" pageHeight="850" background="none" math="0" shadow="0">
      <root>
        <mxCell id="0" />
        <mxCell id="1" parent="0" />
        <mxCell id="BksfZ8YoHNrQHtchWEO0-129" value="Others&lt;br&gt;" style="verticalAlign=top;align=left;spacingTop=8;spacingLeft=2;spacingRight=12;shape=cube;size=10;direction=south;fontStyle=4;html=1;whiteSpace=wrap;" vertex="1" parent="1">
          <mxGeometry x="-540" y="-2580" width="1030" height="620" as="geometry" />
        </mxCell>
        <mxCell id="BksfZ8YoHNrQHtchWEO0-1" value="Module" style="shape=module;align=left;spacingLeft=20;align=center;verticalAlign=top;whiteSpace=wrap;html=1;" vertex="1" parent="1">
          <mxGeometry x="220" y="50" width="100" height="50" as="geometry" />
        </mxCell>
        <mxCell id="BksfZ8YoHNrQHtchWEO0-2" value="Elsa.Common" style="shape=folder;fontStyle=1;spacingTop=10;tabWidth=40;tabHeight=14;tabPosition=left;html=1;whiteSpace=wrap;" vertex="1" parent="1">
          <mxGeometry x="-410" y="-2470" width="110" height="70" as="geometry" />
        </mxCell>
        <mxCell id="BksfZ8YoHNrQHtchWEO0-3" value="Elsa.Features" style="shape=folder;fontStyle=1;spacingTop=10;tabWidth=40;tabHeight=14;tabPosition=left;html=1;whiteSpace=wrap;" vertex="1" parent="1">
          <mxGeometry x="640" y="130" width="110" height="60" as="geometry" />
        </mxCell>
        <mxCell id="BksfZ8YoHNrQHtchWEO0-4" value="Elsa.Mediator" style="shape=folder;fontStyle=1;spacingTop=10;tabWidth=40;tabHeight=14;tabPosition=left;html=1;whiteSpace=wrap;" vertex="1" parent="1">
          <mxGeometry x="1800" y="50" width="110" height="70" as="geometry" />
        </mxCell>
        <mxCell id="BksfZ8YoHNrQHtchWEO0-5" value="Elsa.Api.Common" style="shape=folder;fontStyle=1;spacingTop=10;tabWidth=40;tabHeight=14;tabPosition=left;html=1;whiteSpace=wrap;" vertex="1" parent="1">
          <mxGeometry x="580" y="1570" width="120" height="60" as="geometry" />
        </mxCell>
        <mxCell id="BksfZ8YoHNrQHtchWEO0-7" value="Elsa.Workflows.Core" style="shape=folder;fontStyle=1;spacingTop=10;tabWidth=40;tabHeight=14;tabPosition=left;html=1;whiteSpace=wrap;" vertex="1" parent="1">
          <mxGeometry x="1130" y="385" width="130" height="80" as="geometry" />
        </mxCell>
        <mxCell id="BksfZ8YoHNrQHtchWEO0-12" value="Elsa.DropIns" style="shape=folder;fontStyle=1;spacingTop=10;tabWidth=40;tabHeight=14;tabPosition=left;html=1;whiteSpace=wrap;" vertex="1" parent="1">
          <mxGeometry x="1430" y="740" width="90" height="70" as="geometry" />
        </mxCell>
        <mxCell id="BksfZ8YoHNrQHtchWEO0-15" style="edgeStyle=orthogonalEdgeStyle;rounded=0;orthogonalLoop=1;jettySize=auto;html=1;entryX=0.5;entryY=1;entryDx=0;entryDy=0;entryPerimeter=0;" edge="1" parent="1" source="BksfZ8YoHNrQHtchWEO0-5" target="BksfZ8YoHNrQHtchWEO0-3">
          <mxGeometry relative="1" as="geometry">
            <Array as="points">
              <mxPoint x="790" y="1610" />
              <mxPoint x="790" y="880" />
              <mxPoint x="695" y="880" />
            </Array>
          </mxGeometry>
        </mxCell>
        <mxCell id="BksfZ8YoHNrQHtchWEO0-16" style="edgeStyle=orthogonalEdgeStyle;rounded=0;orthogonalLoop=1;jettySize=auto;html=1;entryX=0.5;entryY=1;entryDx=0;entryDy=0;entryPerimeter=0;" edge="1" parent="1" source="BksfZ8YoHNrQHtchWEO0-5" target="BksfZ8YoHNrQHtchWEO0-7">
          <mxGeometry relative="1" as="geometry">
            <Array as="points">
              <mxPoint x="740" y="1590" />
              <mxPoint x="740" y="1170" />
              <mxPoint x="510" y="1170" />
              <mxPoint x="510" y="540" />
              <mxPoint x="1195" y="540" />
            </Array>
          </mxGeometry>
        </mxCell>
        <mxCell id="BksfZ8YoHNrQHtchWEO0-17" value="Elsa.DropIns.Core" style="shape=folder;fontStyle=1;spacingTop=10;tabWidth=40;tabHeight=14;tabPosition=left;html=1;whiteSpace=wrap;" vertex="1" parent="1">
          <mxGeometry x="1420" y="390" width="110" height="70" as="geometry" />
        </mxCell>
        <mxCell id="BksfZ8YoHNrQHtchWEO0-18" style="edgeStyle=orthogonalEdgeStyle;rounded=0;orthogonalLoop=1;jettySize=auto;html=1;entryX=0.5;entryY=1;entryDx=0;entryDy=0;entryPerimeter=0;" edge="1" parent="1" source="BksfZ8YoHNrQHtchWEO0-12" target="BksfZ8YoHNrQHtchWEO0-17">
          <mxGeometry relative="1" as="geometry" />
        </mxCell>
        <mxCell id="BksfZ8YoHNrQHtchWEO0-20" style="edgeStyle=orthogonalEdgeStyle;rounded=0;orthogonalLoop=1;jettySize=auto;html=1;entryX=0.5;entryY=1;entryDx=0;entryDy=0;entryPerimeter=0;" edge="1" parent="1" source="BksfZ8YoHNrQHtchWEO0-17" target="BksfZ8YoHNrQHtchWEO0-3">
          <mxGeometry relative="1" as="geometry">
            <Array as="points">
              <mxPoint x="1475" y="340" />
              <mxPoint x="695" y="340" />
            </Array>
          </mxGeometry>
        </mxCell>
        <mxCell id="BksfZ8YoHNrQHtchWEO0-21" value="alterations" style="verticalAlign=top;align=left;spacingTop=8;spacingLeft=2;spacingRight=12;shape=cube;size=10;direction=south;fontStyle=4;html=1;whiteSpace=wrap;" vertex="1" parent="1">
          <mxGeometry x="1650" y="210" width="180" height="120" as="geometry" />
        </mxCell>
        <mxCell id="BksfZ8YoHNrQHtchWEO0-22" value="Elsa.Alterations" style="shape=folder;fontStyle=1;spacingTop=10;tabWidth=40;tabHeight=14;tabPosition=left;html=1;whiteSpace=wrap;" vertex="1" parent="1">
          <mxGeometry x="640" y="2120" width="110" height="60" as="geometry" />
        </mxCell>
        <mxCell id="BksfZ8YoHNrQHtchWEO0-23" value="Elsa.Alterations.Core" style="shape=folder;fontStyle=1;spacingTop=10;tabWidth=40;tabHeight=14;tabPosition=left;html=1;whiteSpace=wrap;" vertex="1" parent="1">
          <mxGeometry x="140" y="1560" width="140" height="70" as="geometry" />
        </mxCell>
        <mxCell id="BksfZ8YoHNrQHtchWEO0-24" value="Elsa.Alterations.MassTransit" style="shape=folder;fontStyle=1;spacingTop=10;tabWidth=40;tabHeight=14;tabPosition=left;html=1;whiteSpace=wrap;" vertex="1" parent="1">
          <mxGeometry x="1440" y="1670" width="170" height="70" as="geometry" />
        </mxCell>
        <mxCell id="BksfZ8YoHNrQHtchWEO0-25" style="edgeStyle=orthogonalEdgeStyle;rounded=0;orthogonalLoop=1;jettySize=auto;html=1;entryX=0.5;entryY=1;entryDx=0;entryDy=0;entryPerimeter=0;" edge="1" parent="1" source="BksfZ8YoHNrQHtchWEO0-22" target="BksfZ8YoHNrQHtchWEO0-5">
          <mxGeometry relative="1" as="geometry">
            <Array as="points">
              <mxPoint x="890" y="2160" />
              <mxPoint x="890" y="1730" />
              <mxPoint x="695" y="1730" />
            </Array>
          </mxGeometry>
        </mxCell>
        <mxCell id="BksfZ8YoHNrQHtchWEO0-26" style="edgeStyle=orthogonalEdgeStyle;rounded=0;orthogonalLoop=1;jettySize=auto;html=1;entryX=0.5;entryY=1;entryDx=0;entryDy=0;entryPerimeter=0;" edge="1" parent="1" source="BksfZ8YoHNrQHtchWEO0-22" target="BksfZ8YoHNrQHtchWEO0-23">
          <mxGeometry relative="1" as="geometry">
            <Array as="points">
              <mxPoint x="480" y="2150" />
              <mxPoint x="480" y="1730" />
              <mxPoint x="210" y="1730" />
            </Array>
          </mxGeometry>
        </mxCell>
        <mxCell id="BksfZ8YoHNrQHtchWEO0-27" style="edgeStyle=orthogonalEdgeStyle;rounded=0;orthogonalLoop=1;jettySize=auto;html=1;entryX=0.5;entryY=1;entryDx=0;entryDy=0;entryPerimeter=0;" edge="1" parent="1" source="BksfZ8YoHNrQHtchWEO0-23" target="BksfZ8YoHNrQHtchWEO0-7">
          <mxGeometry relative="1" as="geometry">
            <Array as="points">
              <mxPoint x="510" y="1595" />
              <mxPoint x="510" y="540" />
              <mxPoint x="1195" y="540" />
            </Array>
          </mxGeometry>
        </mxCell>
        <mxCell id="BksfZ8YoHNrQHtchWEO0-28" value="Elsa.Workflows.Management" style="shape=folder;fontStyle=1;spacingTop=10;tabWidth=40;tabHeight=14;tabPosition=left;html=1;whiteSpace=wrap;" vertex="1" parent="1">
          <mxGeometry x="-150" y="710" width="200" height="90" as="geometry" />
        </mxCell>
        <mxCell id="BksfZ8YoHNrQHtchWEO0-29" value="Elsa.Workflows.Runtime" style="shape=folder;fontStyle=1;spacingTop=10;tabWidth=40;tabHeight=14;tabPosition=left;html=1;whiteSpace=wrap;" vertex="1" parent="1">
          <mxGeometry x="-550" y="1090" width="200" height="90" as="geometry" />
        </mxCell>
        <mxCell id="BksfZ8YoHNrQHtchWEO0-30" style="edgeStyle=orthogonalEdgeStyle;rounded=0;orthogonalLoop=1;jettySize=auto;html=1;entryX=0.5;entryY=1;entryDx=0;entryDy=0;entryPerimeter=0;" edge="1" parent="1" source="BksfZ8YoHNrQHtchWEO0-28" target="BksfZ8YoHNrQHtchWEO0-7">
          <mxGeometry relative="1" as="geometry">
            <Array as="points">
              <mxPoint x="510" y="755" />
              <mxPoint x="510" y="540" />
              <mxPoint x="1195" y="540" />
            </Array>
          </mxGeometry>
        </mxCell>
        <mxCell id="BksfZ8YoHNrQHtchWEO0-31" value="Elsa.Dsl" style="shape=folder;fontStyle=1;spacingTop=10;tabWidth=40;tabHeight=14;tabPosition=left;html=1;whiteSpace=wrap;" vertex="1" parent="1">
          <mxGeometry x="350" y="400" width="120" height="70" as="geometry" />
        </mxCell>
        <mxCell id="BksfZ8YoHNrQHtchWEO0-32" style="edgeStyle=orthogonalEdgeStyle;rounded=0;orthogonalLoop=1;jettySize=auto;html=1;entryX=0.5;entryY=1;entryDx=0;entryDy=0;entryPerimeter=0;" edge="1" parent="1" source="BksfZ8YoHNrQHtchWEO0-28" target="BksfZ8YoHNrQHtchWEO0-31">
          <mxGeometry relative="1" as="geometry">
            <Array as="points">
              <mxPoint x="410" y="730" />
            </Array>
          </mxGeometry>
        </mxCell>
        <mxCell id="BksfZ8YoHNrQHtchWEO0-33" style="edgeStyle=orthogonalEdgeStyle;rounded=0;orthogonalLoop=1;jettySize=auto;html=1;entryX=0.5;entryY=1;entryDx=0;entryDy=0;entryPerimeter=0;" edge="1" parent="1" source="BksfZ8YoHNrQHtchWEO0-29" target="BksfZ8YoHNrQHtchWEO0-28">
          <mxGeometry relative="1" as="geometry" />
        </mxCell>
        <mxCell id="BksfZ8YoHNrQHtchWEO0-34" style="edgeStyle=orthogonalEdgeStyle;rounded=0;orthogonalLoop=1;jettySize=auto;html=1;entryX=0.5;entryY=1;entryDx=0;entryDy=0;entryPerimeter=0;" edge="1" parent="1" source="BksfZ8YoHNrQHtchWEO0-29" target="BksfZ8YoHNrQHtchWEO0-7">
          <mxGeometry relative="1" as="geometry">
            <Array as="points">
              <mxPoint x="510" y="1170" />
              <mxPoint x="510" y="540" />
              <mxPoint x="1195" y="540" />
            </Array>
          </mxGeometry>
        </mxCell>
        <mxCell id="BksfZ8YoHNrQHtchWEO0-35" style="edgeStyle=orthogonalEdgeStyle;rounded=0;orthogonalLoop=1;jettySize=auto;html=1;entryX=0.5;entryY=1;entryDx=0;entryDy=0;entryPerimeter=0;" edge="1" parent="1" source="BksfZ8YoHNrQHtchWEO0-23" target="BksfZ8YoHNrQHtchWEO0-28">
          <mxGeometry relative="1" as="geometry">
            <Array as="points">
              <mxPoint x="-50" y="1595" />
            </Array>
          </mxGeometry>
        </mxCell>
        <mxCell id="BksfZ8YoHNrQHtchWEO0-36" style="edgeStyle=orthogonalEdgeStyle;rounded=0;orthogonalLoop=1;jettySize=auto;html=1;entryX=0.5;entryY=1;entryDx=0;entryDy=0;entryPerimeter=0;" edge="1" parent="1" target="BksfZ8YoHNrQHtchWEO0-29">
          <mxGeometry relative="1" as="geometry">
            <mxPoint x="140" y="1615.0769230769229" as="sourcePoint" />
            <mxPoint x="-450" y="1200" as="targetPoint" />
          </mxGeometry>
        </mxCell>
        <mxCell id="BksfZ8YoHNrQHtchWEO0-39" style="edgeStyle=orthogonalEdgeStyle;rounded=0;orthogonalLoop=1;jettySize=auto;html=1;entryX=0.5;entryY=1;entryDx=0;entryDy=0;entryPerimeter=0;" edge="1" parent="1" source="BksfZ8YoHNrQHtchWEO0-37" target="BksfZ8YoHNrQHtchWEO0-22">
          <mxGeometry relative="1" as="geometry">
            <mxPoint x="600" y="2199.9999999999995" as="targetPoint" />
            <Array as="points">
              <mxPoint x="430" y="2150" />
              <mxPoint x="430" y="2200" />
              <mxPoint x="695" y="2200" />
            </Array>
          </mxGeometry>
        </mxCell>
        <mxCell id="BksfZ8YoHNrQHtchWEO0-37" value="Elsa.Alterations.MassTransit" style="shape=folder;fontStyle=1;spacingTop=10;tabWidth=40;tabHeight=14;tabPosition=left;html=1;whiteSpace=wrap;" vertex="1" parent="1">
          <mxGeometry x="150" y="2105" width="180" height="90" as="geometry" />
        </mxCell>
        <mxCell id="BksfZ8YoHNrQHtchWEO0-55" value="" style="group" vertex="1" connectable="0" parent="1">
          <mxGeometry x="2220" y="1715" width="940" height="255" as="geometry" />
        </mxCell>
        <mxCell id="BksfZ8YoHNrQHtchWEO0-54" value="runtimes" style="verticalAlign=top;align=left;spacingTop=8;spacingLeft=2;spacingRight=12;shape=cube;size=10;direction=south;fontStyle=4;html=1;whiteSpace=wrap;" vertex="1" parent="BksfZ8YoHNrQHtchWEO0-55">
          <mxGeometry width="940" height="255" as="geometry" />
        </mxCell>
        <mxCell id="BksfZ8YoHNrQHtchWEO0-52" value="Elsa.ProtoActor" style="shape=folder;fontStyle=1;spacingTop=10;tabWidth=40;tabHeight=14;tabPosition=left;html=1;whiteSpace=wrap;" vertex="1" parent="BksfZ8YoHNrQHtchWEO0-55">
          <mxGeometry x="90" y="85" width="140" height="70" as="geometry" />
        </mxCell>
        <mxCell id="BksfZ8YoHNrQHtchWEO0-53" value="Elsa.ProtoActor.Cluster.AzureContainerApps" style="shape=folder;fontStyle=1;spacingTop=10;tabWidth=40;tabHeight=14;tabPosition=left;html=1;whiteSpace=wrap;" vertex="1" parent="BksfZ8YoHNrQHtchWEO0-55">
          <mxGeometry x="540" y="85" width="300" height="70" as="geometry" />
        </mxCell>
        <mxCell id="BksfZ8YoHNrQHtchWEO0-57" value="" style="group" vertex="1" connectable="0" parent="1">
          <mxGeometry x="950" y="2350" width="1550" height="565" as="geometry" />
        </mxCell>
        <mxCell id="BksfZ8YoHNrQHtchWEO0-56" value="Block" style="verticalAlign=top;align=left;spacingTop=8;spacingLeft=2;spacingRight=12;shape=cube;size=10;direction=south;fontStyle=4;html=1;whiteSpace=wrap;" vertex="1" parent="BksfZ8YoHNrQHtchWEO0-57">
          <mxGeometry x="-10" y="-10" width="1550" height="565" as="geometry" />
        </mxCell>
        <mxCell id="BksfZ8YoHNrQHtchWEO0-42" value="Elsa.Dapper" style="shape=folder;fontStyle=1;spacingTop=10;tabWidth=40;tabHeight=14;tabPosition=left;html=1;whiteSpace=wrap;" vertex="1" parent="BksfZ8YoHNrQHtchWEO0-57">
          <mxGeometry x="85" y="90" width="110" height="65" as="geometry" />
        </mxCell>
        <mxCell id="BksfZ8YoHNrQHtchWEO0-43" value="Elsa.Dapper.Migrations" style="shape=folder;fontStyle=1;spacingTop=10;tabWidth=40;tabHeight=14;tabPosition=left;html=1;whiteSpace=wrap;" vertex="1" parent="BksfZ8YoHNrQHtchWEO0-57">
          <mxGeometry x="430" y="103.75" width="190" height="91.25" as="geometry" />
        </mxCell>
        <mxCell id="BksfZ8YoHNrQHtchWEO0-44" value="Elsa.Elasticsearch" style="shape=folder;fontStyle=1;spacingTop=10;tabWidth=40;tabHeight=14;tabPosition=left;html=1;whiteSpace=wrap;" vertex="1" parent="BksfZ8YoHNrQHtchWEO0-57">
          <mxGeometry x="370" y="265" width="130" height="70" as="geometry" />
        </mxCell>
        <mxCell id="BksfZ8YoHNrQHtchWEO0-45" value="Elsa.EntityFrameworkCore" style="shape=folder;fontStyle=1;spacingTop=10;tabWidth=40;tabHeight=14;tabPosition=left;html=1;whiteSpace=wrap;" vertex="1" parent="BksfZ8YoHNrQHtchWEO0-57">
          <mxGeometry x="85" y="255" width="170" height="90" as="geometry" />
        </mxCell>
        <mxCell id="BksfZ8YoHNrQHtchWEO0-46" value="Elsa.EntityFrameworkCore.Common" style="shape=folder;fontStyle=1;spacingTop=10;tabWidth=40;tabHeight=14;tabPosition=left;html=1;whiteSpace=wrap;" vertex="1" parent="BksfZ8YoHNrQHtchWEO0-57">
          <mxGeometry x="720" y="120" width="240" height="100" as="geometry" />
        </mxCell>
        <mxCell id="BksfZ8YoHNrQHtchWEO0-47" value="Elsa.EntityFrameworkCore.MySql" style="shape=folder;fontStyle=1;spacingTop=10;tabWidth=40;tabHeight=14;tabPosition=left;html=1;whiteSpace=wrap;" vertex="1" parent="BksfZ8YoHNrQHtchWEO0-57">
          <mxGeometry x="65" y="385" width="210" height="80" as="geometry" />
        </mxCell>
        <mxCell id="BksfZ8YoHNrQHtchWEO0-48" value="Elsa.EntityFrameworkCore.PostgreSql" style="shape=folder;fontStyle=1;spacingTop=10;tabWidth=40;tabHeight=14;tabPosition=left;html=1;whiteSpace=wrap;" vertex="1" parent="BksfZ8YoHNrQHtchWEO0-57">
          <mxGeometry x="370" y="385" width="230" height="80" as="geometry" />
        </mxCell>
        <mxCell id="BksfZ8YoHNrQHtchWEO0-49" value="Elsa.EntityFrameworkCore.Sqlite" style="shape=folder;fontStyle=1;spacingTop=10;tabWidth=40;tabHeight=14;tabPosition=left;html=1;whiteSpace=wrap;" vertex="1" parent="BksfZ8YoHNrQHtchWEO0-57">
          <mxGeometry x="710" y="395" width="210" height="70" as="geometry" />
        </mxCell>
        <mxCell id="BksfZ8YoHNrQHtchWEO0-50" value="Elsa.EntityFrameworkCore.SqlServer" style="shape=folder;fontStyle=1;spacingTop=10;tabWidth=40;tabHeight=14;tabPosition=left;html=1;whiteSpace=wrap;" vertex="1" parent="BksfZ8YoHNrQHtchWEO0-57">
          <mxGeometry x="1010" y="395" width="230" height="70" as="geometry" />
        </mxCell>
        <mxCell id="BksfZ8YoHNrQHtchWEO0-51" value="Elsa.MongoDb" style="shape=folder;fontStyle=1;spacingTop=10;tabWidth=40;tabHeight=14;tabPosition=left;html=1;whiteSpace=wrap;" vertex="1" parent="BksfZ8YoHNrQHtchWEO0-57">
          <mxGeometry x="1320" y="405" width="140" height="60" as="geometry" />
        </mxCell>
        <mxCell id="BksfZ8YoHNrQHtchWEO0-70" value="" style="group" vertex="1" connectable="0" parent="1">
          <mxGeometry x="2780" y="2580" width="540" height="210" as="geometry" />
        </mxCell>
        <mxCell id="BksfZ8YoHNrQHtchWEO0-67" value="servicebus" style="verticalAlign=top;align=left;spacingTop=8;spacingLeft=2;spacingRight=12;shape=cube;size=10;direction=south;fontStyle=4;html=1;whiteSpace=wrap;" vertex="1" parent="BksfZ8YoHNrQHtchWEO0-70">
          <mxGeometry width="540" height="210" as="geometry" />
        </mxCell>
        <mxCell id="BksfZ8YoHNrQHtchWEO0-68" value="Elsa.AzureServiceBus" style="shape=folder;fontStyle=1;spacingTop=10;tabWidth=40;tabHeight=14;tabPosition=left;html=1;whiteSpace=wrap;" vertex="1" parent="BksfZ8YoHNrQHtchWEO0-70">
          <mxGeometry x="40" y="80" width="160" height="70" as="geometry" />
        </mxCell>
        <mxCell id="BksfZ8YoHNrQHtchWEO0-69" value="Elsa.MassTransit" style="shape=folder;fontStyle=1;spacingTop=10;tabWidth=40;tabHeight=14;tabPosition=left;html=1;whiteSpace=wrap;" vertex="1" parent="BksfZ8YoHNrQHtchWEO0-70">
          <mxGeometry x="340" y="80" width="130" height="80" as="geometry" />
        </mxCell>
        <mxCell id="BksfZ8YoHNrQHtchWEO0-73" value="" style="group" vertex="1" connectable="0" parent="1">
          <mxGeometry x="3560" y="2580" width="180" height="120" as="geometry" />
        </mxCell>
        <mxCell id="BksfZ8YoHNrQHtchWEO0-71" value="storage" style="verticalAlign=top;align=left;spacingTop=8;spacingLeft=2;spacingRight=12;shape=cube;size=10;direction=south;fontStyle=4;html=1;whiteSpace=wrap;" vertex="1" parent="BksfZ8YoHNrQHtchWEO0-73">
          <mxGeometry width="180" height="120" as="geometry" />
        </mxCell>
        <mxCell id="BksfZ8YoHNrQHtchWEO0-72" value="Elsa.FileStorage" style="shape=folder;fontStyle=1;spacingTop=10;tabWidth=40;tabHeight=14;tabPosition=left;html=1;whiteSpace=wrap;" vertex="1" parent="BksfZ8YoHNrQHtchWEO0-73">
          <mxGeometry x="35" y="50" width="110" height="60" as="geometry" />
        </mxCell>
        <mxCell id="BksfZ8YoHNrQHtchWEO0-74" value="" style="group" vertex="1" connectable="0" parent="1">
          <mxGeometry x="2780" y="2360" width="180" height="120" as="geometry" />
        </mxCell>
        <mxCell id="BksfZ8YoHNrQHtchWEO0-65" value="security" style="verticalAlign=top;align=left;spacingTop=8;spacingLeft=2;spacingRight=12;shape=cube;size=10;direction=south;fontStyle=4;html=1;whiteSpace=wrap;" vertex="1" parent="BksfZ8YoHNrQHtchWEO0-74">
          <mxGeometry width="180" height="120" as="geometry" />
        </mxCell>
        <mxCell id="BksfZ8YoHNrQHtchWEO0-66" value="Elsa.Identity" style="shape=folder;fontStyle=1;spacingTop=10;tabWidth=40;tabHeight=14;tabPosition=left;html=1;whiteSpace=wrap;" vertex="1" parent="BksfZ8YoHNrQHtchWEO0-74">
          <mxGeometry x="40" y="40" width="90" height="50" as="geometry" />
        </mxCell>
        <mxCell id="BksfZ8YoHNrQHtchWEO0-83" value="" style="group" vertex="1" connectable="0" parent="1">
          <mxGeometry x="3550" y="2750" width="670" height="280" as="geometry" />
        </mxCell>
        <mxCell id="BksfZ8YoHNrQHtchWEO0-75" value="timers" style="verticalAlign=top;align=left;spacingTop=8;spacingLeft=2;spacingRight=12;shape=cube;size=10;direction=south;fontStyle=4;html=1;whiteSpace=wrap;" vertex="1" parent="BksfZ8YoHNrQHtchWEO0-83">
          <mxGeometry width="670" height="280" as="geometry" />
        </mxCell>
        <mxCell id="BksfZ8YoHNrQHtchWEO0-76" value="Elsa.Hangfire" style="shape=folder;fontStyle=1;spacingTop=10;tabWidth=40;tabHeight=14;tabPosition=left;html=1;whiteSpace=wrap;" vertex="1" parent="BksfZ8YoHNrQHtchWEO0-83">
          <mxGeometry x="40" y="50" width="100" height="60" as="geometry" />
        </mxCell>
        <mxCell id="BksfZ8YoHNrQHtchWEO0-77" value="Elsa.Quartz" style="shape=folder;fontStyle=1;spacingTop=10;tabWidth=40;tabHeight=14;tabPosition=left;html=1;whiteSpace=wrap;" vertex="1" parent="BksfZ8YoHNrQHtchWEO0-83">
          <mxGeometry x="180" y="50" width="80" height="60" as="geometry" />
        </mxCell>
        <mxCell id="BksfZ8YoHNrQHtchWEO0-78" value="Elsa.Quartz.EntityFrameworkCore.MySql" style="shape=folder;fontStyle=1;spacingTop=10;tabWidth=40;tabHeight=14;tabPosition=left;html=1;whiteSpace=wrap;" vertex="1" parent="BksfZ8YoHNrQHtchWEO0-83">
          <mxGeometry x="40" y="140" width="250" height="60" as="geometry" />
        </mxCell>
        <mxCell id="BksfZ8YoHNrQHtchWEO0-79" value="Elsa.Quartz.EntityFrameworkCore.PostgreSql" style="shape=folder;fontStyle=1;spacingTop=10;tabWidth=40;tabHeight=14;tabPosition=left;html=1;whiteSpace=wrap;" vertex="1" parent="BksfZ8YoHNrQHtchWEO0-83">
          <mxGeometry x="330" y="140" width="280" height="60" as="geometry" />
        </mxCell>
        <mxCell id="BksfZ8YoHNrQHtchWEO0-80" value="Elsa.Quartz.EntityFrameworkCore.Sqlite" style="shape=folder;fontStyle=1;spacingTop=10;tabWidth=40;tabHeight=14;tabPosition=left;html=1;whiteSpace=wrap;" vertex="1" parent="BksfZ8YoHNrQHtchWEO0-83">
          <mxGeometry x="40" y="220" width="250" height="50" as="geometry" />
        </mxCell>
        <mxCell id="BksfZ8YoHNrQHtchWEO0-81" value="Elsa.Quartz.EntityFrameworkCore.SqlServer" style="shape=folder;fontStyle=1;spacingTop=10;tabWidth=40;tabHeight=14;tabPosition=left;html=1;whiteSpace=wrap;" vertex="1" parent="BksfZ8YoHNrQHtchWEO0-83">
          <mxGeometry x="330" y="220" width="280" height="50" as="geometry" />
        </mxCell>
        <mxCell id="BksfZ8YoHNrQHtchWEO0-82" value="Elsa.Scheduling" style="shape=folder;fontStyle=1;spacingTop=10;tabWidth=40;tabHeight=14;tabPosition=left;html=1;whiteSpace=wrap;" vertex="1" parent="BksfZ8YoHNrQHtchWEO0-83">
          <mxGeometry x="330" y="60" width="120" height="50" as="geometry" />
        </mxCell>
        <mxCell id="BksfZ8YoHNrQHtchWEO0-92" value="" style="group;fillColor=none;strokeColor=none;dropTarget=0;" vertex="1" connectable="0" parent="1">
          <mxGeometry x="510" y="-1090" width="1200" height="640" as="geometry" />
        </mxCell>
        <mxCell id="BksfZ8YoHNrQHtchWEO0-84" value="workflows" style="verticalAlign=top;align=left;spacingTop=8;spacingLeft=2;spacingRight=12;shape=cube;size=10;direction=south;fontStyle=4;html=1;whiteSpace=wrap;" vertex="1" parent="BksfZ8YoHNrQHtchWEO0-92">
          <mxGeometry width="1200" height="640" as="geometry" />
        </mxCell>
        <mxCell id="BksfZ8YoHNrQHtchWEO0-85" value="Elsa.WorkflowContexts" style="shape=folder;fontStyle=1;spacingTop=10;tabWidth=40;tabHeight=14;tabPosition=left;html=1;whiteSpace=wrap;" vertex="1" parent="BksfZ8YoHNrQHtchWEO0-92">
          <mxGeometry x="100" y="500" width="160" height="50" as="geometry" />
        </mxCell>
        <mxCell id="BksfZ8YoHNrQHtchWEO0-86" value="Elsa.WorkflowProviders.BlobStorage" style="shape=folder;fontStyle=1;spacingTop=10;tabWidth=40;tabHeight=14;tabPosition=left;html=1;whiteSpace=wrap;" vertex="1" parent="BksfZ8YoHNrQHtchWEO0-92">
          <mxGeometry x="820" y="500" width="240" height="50" as="geometry" />
        </mxCell>
        <mxCell id="BksfZ8YoHNrQHtchWEO0-87" value="Elsa.Workflows.Api" style="shape=folder;fontStyle=1;spacingTop=10;tabWidth=40;tabHeight=14;tabPosition=left;html=1;whiteSpace=wrap;" vertex="1" parent="BksfZ8YoHNrQHtchWEO0-92">
          <mxGeometry x="100" y="250" width="160" height="50" as="geometry" />
        </mxCell>
        <mxCell id="BksfZ8YoHNrQHtchWEO0-88" value="Elsa.Workflows.Core" style="shape=folder;fontStyle=1;spacingTop=10;tabWidth=40;tabHeight=14;tabPosition=left;html=1;whiteSpace=wrap;" vertex="1" parent="BksfZ8YoHNrQHtchWEO0-92">
          <mxGeometry x="470" y="250" width="140" height="50" as="geometry" />
        </mxCell>
        <mxCell id="BksfZ8YoHNrQHtchWEO0-89" value="Elsa.Workflows.Designer" style="shape=folder;fontStyle=1;spacingTop=10;tabWidth=40;tabHeight=14;tabPosition=left;html=1;whiteSpace=wrap;" vertex="1" parent="BksfZ8YoHNrQHtchWEO0-92">
          <mxGeometry x="835" y="250" width="160" height="50" as="geometry" />
        </mxCell>
        <mxCell id="BksfZ8YoHNrQHtchWEO0-90" value="Elsa.Workflows.Management" style="shape=folder;fontStyle=1;spacingTop=10;tabWidth=40;tabHeight=14;tabPosition=left;html=1;whiteSpace=wrap;" vertex="1" parent="BksfZ8YoHNrQHtchWEO0-92">
          <mxGeometry x="470" y="500" width="180" height="50" as="geometry" />
        </mxCell>
        <mxCell id="BksfZ8YoHNrQHtchWEO0-91" value="Elsa.Workflows.Runtime" style="shape=folder;fontStyle=1;spacingTop=10;tabWidth=40;tabHeight=14;tabPosition=left;html=1;whiteSpace=wrap;" vertex="1" parent="BksfZ8YoHNrQHtchWEO0-92">
          <mxGeometry x="835" y="70" width="170" height="50" as="geometry" />
        </mxCell>
        <mxCell id="BksfZ8YoHNrQHtchWEO0-98" style="edgeStyle=orthogonalEdgeStyle;rounded=0;orthogonalLoop=1;jettySize=auto;html=1;entryX=0.5;entryY=1;entryDx=0;entryDy=0;entryPerimeter=0;" edge="1" parent="BksfZ8YoHNrQHtchWEO0-92" source="BksfZ8YoHNrQHtchWEO0-85" target="BksfZ8YoHNrQHtchWEO0-87">
          <mxGeometry relative="1" as="geometry">
            <Array as="points">
              <mxPoint x="320" y="520" />
              <mxPoint x="320" y="380" />
              <mxPoint x="180" y="380" />
            </Array>
          </mxGeometry>
        </mxCell>
        <mxCell id="BksfZ8YoHNrQHtchWEO0-99" style="edgeStyle=orthogonalEdgeStyle;rounded=0;orthogonalLoop=1;jettySize=auto;html=1;entryX=0.5;entryY=1;entryDx=0;entryDy=0;entryPerimeter=0;" edge="1" parent="BksfZ8YoHNrQHtchWEO0-92" source="BksfZ8YoHNrQHtchWEO0-85" target="BksfZ8YoHNrQHtchWEO0-88">
          <mxGeometry relative="1" as="geometry">
            <Array as="points">
              <mxPoint x="380" y="530" />
              <mxPoint x="380" y="380" />
              <mxPoint x="540" y="380" />
            </Array>
          </mxGeometry>
        </mxCell>
        <mxCell id="BksfZ8YoHNrQHtchWEO0-127" style="edgeStyle=orthogonalEdgeStyle;rounded=0;orthogonalLoop=1;jettySize=auto;html=1;entryX=0.5;entryY=1;entryDx=0;entryDy=0;entryPerimeter=0;" edge="1" parent="BksfZ8YoHNrQHtchWEO0-92" source="BksfZ8YoHNrQHtchWEO0-86" target="BksfZ8YoHNrQHtchWEO0-91">
          <mxGeometry relative="1" as="geometry">
            <Array as="points">
              <mxPoint x="1100" y="525" />
              <mxPoint x="1100" y="220" />
              <mxPoint x="920" y="220" />
            </Array>
          </mxGeometry>
        </mxCell>
        <mxCell id="BksfZ8YoHNrQHtchWEO0-100" value="" style="group" vertex="1" connectable="0" parent="1">
          <mxGeometry x="640" y="-1800" width="1020" height="380" as="geometry" />
        </mxCell>
        <mxCell id="BksfZ8YoHNrQHtchWEO0-101" value="" style="group" vertex="1" connectable="0" parent="BksfZ8YoHNrQHtchWEO0-100">
          <mxGeometry x="10" width="1020" height="380" as="geometry" />
        </mxCell>
        <mxCell id="BksfZ8YoHNrQHtchWEO0-58" value="scripting" style="verticalAlign=top;align=left;spacingTop=8;spacingLeft=2;spacingRight=12;shape=cube;size=10;direction=south;fontStyle=4;html=1;whiteSpace=wrap;container=0;" vertex="1" parent="BksfZ8YoHNrQHtchWEO0-101">
          <mxGeometry width="1020" height="380" as="geometry" />
        </mxCell>
        <mxCell id="BksfZ8YoHNrQHtchWEO0-102" value="" style="group" vertex="1" connectable="0" parent="BksfZ8YoHNrQHtchWEO0-101">
          <mxGeometry x="117.04918032786885" y="60.00363636363637" width="852.7868852459017" height="234.9090909090909" as="geometry" />
        </mxCell>
        <mxCell id="BksfZ8YoHNrQHtchWEO0-59" value="Elsa.CSharp" style="shape=folder;fontStyle=1;spacingTop=10;tabWidth=40;tabHeight=14;tabPosition=left;html=1;whiteSpace=wrap;container=0;" vertex="1" parent="BksfZ8YoHNrQHtchWEO0-102">
          <mxGeometry width="167.21311475409837" height="82.9090909090909" as="geometry" />
        </mxCell>
        <mxCell id="BksfZ8YoHNrQHtchWEO0-60" value="Elsa.Dsl" style="shape=folder;fontStyle=1;spacingTop=10;tabWidth=40;tabHeight=14;tabPosition=left;html=1;whiteSpace=wrap;container=0;" vertex="1" parent="BksfZ8YoHNrQHtchWEO0-102">
          <mxGeometry x="334.42622950819674" y="6.909090909090909" width="117.04918032786885" height="69.0909090909091" as="geometry" />
        </mxCell>
        <mxCell id="BksfZ8YoHNrQHtchWEO0-61" value="Elsa.Expressions" style="shape=folder;fontStyle=1;spacingTop=10;tabWidth=40;tabHeight=14;tabPosition=left;html=1;whiteSpace=wrap;container=0;" vertex="1" parent="BksfZ8YoHNrQHtchWEO0-102">
          <mxGeometry x="652.1311475409836" y="6.909090909090909" width="200.65573770491804" height="76" as="geometry" />
        </mxCell>
        <mxCell id="BksfZ8YoHNrQHtchWEO0-62" value="Elsa.JavaScript" style="shape=folder;fontStyle=1;spacingTop=10;tabWidth=40;tabHeight=14;tabPosition=left;html=1;whiteSpace=wrap;container=0;" vertex="1" parent="BksfZ8YoHNrQHtchWEO0-102">
          <mxGeometry y="152" width="200.65573770491804" height="82.9090909090909" as="geometry" />
        </mxCell>
        <mxCell id="BksfZ8YoHNrQHtchWEO0-63" value="Elsa.Liquid" style="shape=folder;fontStyle=1;spacingTop=10;tabWidth=40;tabHeight=14;tabPosition=left;html=1;whiteSpace=wrap;container=0;" vertex="1" parent="BksfZ8YoHNrQHtchWEO0-102">
          <mxGeometry x="334.42622950819674" y="158.9090909090909" width="167.21311475409837" height="76" as="geometry" />
        </mxCell>
        <mxCell id="BksfZ8YoHNrQHtchWEO0-103" style="edgeStyle=orthogonalEdgeStyle;rounded=0;orthogonalLoop=1;jettySize=auto;html=1;entryX=0.5;entryY=1;entryDx=0;entryDy=0;entryPerimeter=0;" edge="1" parent="1" source="BksfZ8YoHNrQHtchWEO0-85" target="BksfZ8YoHNrQHtchWEO0-62">
          <mxGeometry relative="1" as="geometry">
            <Array as="points">
              <mxPoint x="560" y="-570" />
              <mxPoint x="560" y="-1360" />
              <mxPoint x="867" y="-1360" />
            </Array>
          </mxGeometry>
        </mxCell>
        <mxCell id="BksfZ8YoHNrQHtchWEO0-125" value="" style="group;autosize=1;" vertex="1" connectable="0" parent="1">
          <mxGeometry x="-1010" y="-1810" width="1060" height="480" as="geometry" />
        </mxCell>
        <mxCell id="BksfZ8YoHNrQHtchWEO0-118" value="common" style="verticalAlign=top;align=left;spacingTop=8;spacingLeft=2;spacingRight=12;shape=cube;size=10;direction=south;fontStyle=4;html=1;whiteSpace=wrap;container=1;" vertex="1" parent="BksfZ8YoHNrQHtchWEO0-125">
          <mxGeometry y="-10" width="1060" height="480" as="geometry" />
        </mxCell>
        <mxCell id="BksfZ8YoHNrQHtchWEO0-119" value="Elsa.Api.Common" style="shape=folder;fontStyle=1;spacingTop=10;tabWidth=40;tabHeight=14;tabPosition=left;html=1;whiteSpace=wrap;" vertex="1" parent="BksfZ8YoHNrQHtchWEO0-125">
          <mxGeometry x="70" y="70" width="140" height="60" as="geometry" />
        </mxCell>
        <mxCell id="BksfZ8YoHNrQHtchWEO0-120" value="Elsa.DropIns" style="shape=folder;fontStyle=1;spacingTop=10;tabWidth=40;tabHeight=14;tabPosition=left;html=1;whiteSpace=wrap;" vertex="1" parent="BksfZ8YoHNrQHtchWEO0-125">
          <mxGeometry x="500" y="80" width="110" height="50" as="geometry" />
        </mxCell>
        <mxCell id="BksfZ8YoHNrQHtchWEO0-121" value="Elsa.DropIns.Core" style="shape=folder;fontStyle=1;spacingTop=10;tabWidth=40;tabHeight=14;tabPosition=left;html=1;whiteSpace=wrap;" vertex="1" parent="BksfZ8YoHNrQHtchWEO0-125">
          <mxGeometry x="845" y="80" width="140" height="50" as="geometry" />
        </mxCell>
        <mxCell id="BksfZ8YoHNrQHtchWEO0-122" value="Elsa.Features" style="shape=folder;fontStyle=1;spacingTop=10;tabWidth=40;tabHeight=14;tabPosition=left;html=1;whiteSpace=wrap;" vertex="1" parent="BksfZ8YoHNrQHtchWEO0-125">
          <mxGeometry x="830" y="310" width="170" height="50" as="geometry" />
        </mxCell>
        <mxCell id="BksfZ8YoHNrQHtchWEO0-123" value="Elsa.Mediator" style="shape=folder;fontStyle=1;spacingTop=10;tabWidth=40;tabHeight=14;tabPosition=left;html=1;whiteSpace=wrap;" vertex="1" parent="BksfZ8YoHNrQHtchWEO0-125">
          <mxGeometry x="95" y="300" width="90" height="60" as="geometry" />
        </mxCell>
        <mxCell id="BksfZ8YoHNrQHtchWEO0-124" value="Elsa.Testing.Shared" style="shape=folder;fontStyle=1;spacingTop=10;tabWidth=40;tabHeight=14;tabPosition=left;html=1;whiteSpace=wrap;" vertex="1" parent="BksfZ8YoHNrQHtchWEO0-125">
          <mxGeometry x="490" y="310" width="130" height="50" as="geometry" />
        </mxCell>
        <mxCell id="BksfZ8YoHNrQHtchWEO0-126" style="edgeStyle=orthogonalEdgeStyle;rounded=0;orthogonalLoop=1;jettySize=auto;html=1;entryX=0.5;entryY=1;entryDx=0;entryDy=0;entryPerimeter=0;" edge="1" parent="1" source="BksfZ8YoHNrQHtchWEO0-85" target="BksfZ8YoHNrQHtchWEO0-119">
          <mxGeometry relative="1" as="geometry">
            <Array as="points">
              <mxPoint x="-960" y="-565" />
              <mxPoint x="-960" y="-1560" />
              <mxPoint x="-870" y="-1560" />
            </Array>
          </mxGeometry>
        </mxCell>
        <mxCell id="BksfZ8YoHNrQHtchWEO0-128" style="edgeStyle=orthogonalEdgeStyle;rounded=0;orthogonalLoop=1;jettySize=auto;html=1;entryX=0.5;entryY=1;entryDx=0;entryDy=0;entryPerimeter=0;" edge="1" parent="1" source="BksfZ8YoHNrQHtchWEO0-87" target="BksfZ8YoHNrQHtchWEO0-119">
          <mxGeometry relative="1" as="geometry">
            <Array as="points">
              <mxPoint x="-960" y="-815" />
              <mxPoint x="-960" y="-1560" />
              <mxPoint x="-870" y="-1560" />
            </Array>
          </mxGeometry>
        </mxCell>
        <mxCell id="BksfZ8YoHNrQHtchWEO0-130" value="Elsa.Http" style="shape=folder;fontStyle=1;spacingTop=10;tabWidth=40;tabHeight=14;tabPosition=left;html=1;whiteSpace=wrap;" vertex="1" parent="1">
          <mxGeometry x="-410" y="-2290" width="110" height="70" as="geometry" />
        </mxCell>
        <mxCell id="BksfZ8YoHNrQHtchWEO0-131" value="Elsa.Environments" style="shape=folder;fontStyle=1;spacingTop=10;tabWidth=40;tabHeight=14;tabPosition=left;html=1;whiteSpace=wrap;" vertex="1" parent="1">
          <mxGeometry x="160" y="-2470" width="160" height="70" as="geometry" />
        </mxCell>
        <mxCell id="BksfZ8YoHNrQHtchWEO0-132" value="Elsa.Email" style="shape=folder;fontStyle=1;spacingTop=10;tabWidth=40;tabHeight=14;tabPosition=left;html=1;whiteSpace=wrap;" vertex="1" parent="1">
          <mxGeometry x="-120" y="-2470" width="110" height="70" as="geometry" />
        </mxCell>
        <mxCell id="BksfZ8YoHNrQHtchWEO0-133" value="Elsa.Telnyx" style="shape=folder;fontStyle=1;spacingTop=10;tabWidth=40;tabHeight=14;tabPosition=left;html=1;whiteSpace=wrap;" vertex="1" parent="1">
          <mxGeometry x="-410" y="-2110" width="110" height="70" as="geometry" />
        </mxCell>
        <mxCell id="BksfZ8YoHNrQHtchWEO0-134" value="Elsa.Labels" style="shape=folder;fontStyle=1;spacingTop=10;tabWidth=40;tabHeight=14;tabPosition=left;html=1;whiteSpace=wrap;" vertex="1" parent="1">
          <mxGeometry x="-120" y="-2290" width="110" height="70" as="geometry" />
        </mxCell>
        <mxCell id="BksfZ8YoHNrQHtchWEO0-135" value="Elsa.SasTokens" style="shape=folder;fontStyle=1;spacingTop=10;tabWidth=40;tabHeight=14;tabPosition=left;html=1;whiteSpace=wrap;" vertex="1" parent="1">
          <mxGeometry x="185" y="-2290" width="110" height="70" as="geometry" />
        </mxCell>
        <mxCell id="BksfZ8YoHNrQHtchWEO0-136" value="Elsa.Telnyx" style="shape=folder;fontStyle=1;spacingTop=10;tabWidth=40;tabHeight=14;tabPosition=left;html=1;whiteSpace=wrap;" vertex="1" parent="1">
          <mxGeometry x="-130" y="-2110" width="110" height="70" as="geometry" />
        </mxCell>
      </root>
    </mxGraphModel>
  </diagram>
</mxfile>
